<?xml version="1.0" standalone="no"?>
<!DOCTYPE svg PUBLIC "-//W3C//DTD SVG 20010904//EN"
 "http://www.w3.org/TR/2001/REC-SVG-20010904/DTD/svg10.dtd">
<svg version="1.0" xmlns="http://www.w3.org/2000/svg"
 width="3404.000000pt" height="2687.000000pt" viewBox="0 0 3404.000000 2687.000000"
 preserveAspectRatio="xMidYMid meet">
<metadata>
Created by potrace 1.15, written by Peter Selinger 2001-2017
</metadata>
<g transform="translate(0.000000,2687.000000) scale(0.100000,-0.100000)"
fill="#000000" stroke="none">
<path d="M0 24151 c0 -259 3 -315 16 -346 10 -24 13 -51 9 -72 l-6 -33 50 0
c65 0 84 -24 79 -102 l-3 -53 42 -1 c61 -2 76 -18 71 -76 -3 -26 -1 -48 4 -48
5 0 27 -14 49 -32 41 -33 49 -57 24 -78 -23 -19 -8 -30 40 -30 40 0 46 -3 61
-32 11 -21 14 -43 10 -70 l-6 -38 60 0 c57 0 61 -2 71 -27 6 -16 9 -47 6 -70
l-5 -43 58 0 c54 0 58 -2 69 -29 7 -15 11 -50 9 -77 l-3 -48 41 3 c35 2 45 -2
63 -26 22 -26 23 -46 6 -85 -5 -13 -3 -18 9 -18 8 0 25 -18 36 -40 17 -32 18
-44 9 -61 -9 -17 -8 -23 2 -30 8 -5 1322 -9 2922 -9 l2907 0 9 -24 c6 -14 6
-39 0 -62 -5 -23 -9 -3468 -9 -8381 l0 -8343 11020 0 11020 0 0 7134 c0 6396
-2 7135 -15 7146 -11 9 -65 13 -193 14 l-177 1 3 -43 c2 -28 -2 -52 -12 -68
-15 -22 -23 -24 -91 -24 l-74 0 6 -49 c8 -70 -15 -91 -101 -91 -35 0 -72 -3
-81 -6 -15 -6 -15 -8 0 -24 9 -10 15 -28 13 -41 -5 -37 -46 -59 -123 -65 -97
-8 -100 -9 -81 -36 22 -30 20 -41 -10 -77 -23 -28 -31 -30 -97 -33 -58 -2 -71
-6 -68 -18 13 -49 11 -67 -9 -93 -20 -25 -27 -27 -97 -27 -82 0 -77 5 -57 -58
14 -46 -56 -81 -167 -82 -56 0 -62 -6 -43 -36 34 -51 -23 -104 -113 -104 l-52
0 6 -49 c5 -41 2 -52 -16 -70 -17 -17 -33 -21 -91 -21 -67 0 -70 -1 -60 -19
15 -29 12 -73 -8 -98 -14 -19 -28 -23 -92 -25 l-75 -3 -5 -62 c-3 -34 -7 -63
-10 -66 -3 -3 -19 -8 -35 -11 -27 -6 -32 -3 -47 31 -16 36 -17 -274 -17 -5303
l-1 -5340 44 -21 c51 -25 67 -57 42 -82 -15 -15 -697 -16 -9056 -19 l-9040 -2
-6 26 c-4 14 -2 43 5 64 8 28 11 2166 11 8239 l0 8201 -4325 0 -4325 0 0 -309z"/>
<path d="M11167 24353 c-9 -138 -7 -13226 2 -13360 4 -62 11 -107 19 -115 17
-17 332 -26 332 -9 0 5 -9 15 -20 21 -34 18 -24 48 27 80 35 23 59 30 95 30
45 0 61 11 38 25 -5 3 -10 19 -10 35 0 21 9 36 33 54 28 22 45 26 99 26 l65 0
-4 48 c-4 38 -1 51 17 70 17 18 31 22 86 22 59 0 65 2 58 17 -13 30 -8 83 9
100 12 12 39 18 94 21 79 3 96 8 77 20 -18 12 -24 41 -14 67 11 30 88 55 167
55 49 0 67 10 43 25 -19 12 -11 65 15 90 21 22 33 25 90 25 36 0 65 2 65 4 0
3 -4 16 -10 30 -12 31 4 82 30 96 10 6 51 10 91 10 57 0 70 3 61 12 -16 16
-15 70 1 92 10 14 37 21 108 29 52 6 95 11 97 13 2 1 -4 14 -13 27 -13 20 -14
30 -5 47 19 36 70 60 126 60 l51 0 -5 48 c-6 64 9 77 94 85 37 4 69 8 71 10 2
2 -1 16 -7 31 -7 20 -6 36 5 61 13 32 17 35 57 35 24 0 66 3 95 6 52 7 52 7
36 30 -20 32 -10 68 23 83 21 9 133 29 177 31 4 0 0 11 -9 25 -18 28 -12 57
19 85 16 15 35 20 78 20 81 0 89 5 76 40 -9 23 -8 36 6 65 16 35 17 35 79 35
35 0 73 3 85 6 20 6 20 7 5 34 -16 27 -16 30 4 57 18 25 31 29 105 40 46 6 86
12 88 12 2 1 -4 10 -13 20 -41 46 8 101 96 108 83 6 103 12 89 26 -16 16 -14
69 5 95 13 19 24 22 84 22 l70 0 -7 45 c-4 33 -1 51 11 70 15 23 22 25 91 25
69 0 99 10 75 25 -18 11 -11 71 11 91 16 14 40 19 115 22 69 3 94 8 94 18 0 7
-4 16 -10 19 -18 11 -10 49 17 77 24 25 33 28 95 28 70 0 77 5 58 40 -12 23 5
77 30 90 10 6 46 10 80 10 56 0 61 2 54 18 -16 34 -8 84 15 104 19 14 41 18
112 18 49 0 89 3 89 6 0 3 -7 12 -16 21 -47 48 26 113 129 113 54 0 57 1 47
19 -17 33 -12 76 13 99 19 18 35 22 89 22 l66 0 -6 45 c-3 31 0 52 12 70 15
23 22 25 98 25 64 0 79 3 70 12 -7 7 -12 29 -12 50 0 51 25 65 133 74 48 4 87
10 87 14 0 4 -7 13 -15 20 -49 41 26 110 118 110 l55 0 -6 45 c-3 31 0 52 12
70 15 23 22 25 97 25 76 0 79 1 69 19 -15 30 -12 66 9 92 15 19 30 24 68 25
120 3 118 2 100 22 -19 21 -21 45 -7 72 12 23 101 50 164 50 l45 0 -17 29
c-13 24 -14 34 -4 55 15 33 40 43 124 51 66 6 67 7 56 31 -13 28 0 83 22 95 8
4 50 11 92 14 l77 7 -15 24 c-37 55 15 104 109 104 25 0 58 3 75 6 30 6 30 7
16 30 -32 48 18 104 95 104 62 0 75 9 62 43 -11 29 -2 65 21 84 8 7 43 13 78
15 l65 3 -3 43 c-3 27 2 52 12 67 15 22 23 25 84 25 68 0 105 11 83 24 -12 8
-15 65 -3 83 13 21 62 33 137 33 73 0 98 11 76 33 -19 19 -12 53 15 81 24 23
34 26 96 26 67 0 69 1 62 22 -11 37 -6 79 12 99 13 14 34 19 93 21 62 2 75 6
72 18 -23 85 -4 105 106 115 93 9 99 12 78 35 -44 48 11 102 111 108 55 4 65
7 61 21 -3 9 -9 25 -12 37 -5 14 2 30 20 52 25 30 30 32 97 32 67 0 69 1 62
22 -11 37 -6 79 12 99 14 15 31 19 92 19 67 0 73 2 67 18 -18 41 -16 60 7 85
21 24 32 27 115 33 l92 7 -15 23 c-22 33 -14 65 25 91 27 18 48 23 102 23 63
0 85 9 59 25 -17 11 -11 61 11 89 18 23 27 26 83 26 l63 0 -5 48 c-4 44 -2 51
24 71 20 16 40 22 69 20 22 -1 55 -1 74 0 32 1 33 2 18 19 -22 24 -22 65 1 84
22 20 98 38 157 38 41 0 46 2 40 18 -18 42 -16 59 10 90 25 30 30 32 96 32 66
0 69 1 59 19 -16 31 -12 66 11 95 19 24 26 26 95 26 67 0 90 9 64 25 -17 10
-11 61 9 79 19 17 108 36 174 36 37 0 38 0 23 22 -23 33 -20 53 14 81 20 18
47 27 90 32 52 6 60 10 54 24 -26 55 8 111 66 111 21 0 51 3 68 6 28 6 30 9
25 40 -3 18 0 47 7 64 12 29 14 30 84 30 39 0 81 3 93 6 21 6 21 8 7 30 -35
53 6 89 119 103 85 10 97 15 79 33 -19 19 -14 57 13 83 20 21 34 25 79 25 76
0 87 6 75 37 -11 29 -4 60 19 86 11 13 31 17 81 17 74 0 95 8 81 30 -6 8 -10
27 -10 42 0 36 30 54 105 63 95 10 98 12 78 41 -13 20 -14 30 -5 50 15 32 51
46 132 53 51 5 64 9 61 21 -13 49 -11 67 9 93 19 24 28 27 84 27 34 0 65 3 69
6 3 3 1 16 -5 29 -12 28 -5 67 18 89 11 12 36 16 91 16 68 0 74 2 68 18 -16
38 -17 63 -2 86 14 21 26 25 104 31 114 8 120 10 99 33 -25 29 -19 58 17 86
29 22 44 26 106 26 68 0 71 1 61 19 -16 31 -12 66 11 95 18 23 27 26 83 26
l63 0 -5 49 c-3 40 -1 52 17 70 18 18 33 21 111 21 50 0 90 3 90 7 0 3 -7 14
-16 24 -42 47 36 109 136 109 54 0 55 1 39 32 -13 25 -5 62 21 88 16 16 34 20
84 20 l63 0 -4 48 c-4 38 -1 51 17 70 18 19 31 22 95 22 74 0 86 5 64 27 -17
17 -6 65 21 84 17 13 51 21 113 25 83 7 87 8 71 25 -25 28 -14 70 25 96 26 18
48 23 93 23 55 0 58 1 48 19 -16 31 -12 66 11 95 19 24 26 26 95 26 73 0 74 1
63 21 -14 26 -4 82 18 100 9 8 39 14 67 15 110 2 109 1 92 26 -22 31 -20 51 7
75 22 20 113 43 169 43 25 0 27 2 18 19 -26 49 9 111 62 111 14 0 46 3 72 6
42 6 46 9 40 28 -11 32 -6 67 13 88 12 13 31 18 77 19 76 1 99 8 86 29 -15 24
-11 66 8 83 10 9 53 19 106 26 96 12 106 15 88 33 -7 7 -12 24 -12 39 0 41 43
67 116 71 47 2 58 6 55 18 -13 48 -11 67 9 92 18 24 29 27 88 30 54 2 66 6 63
18 -11 41 -10 67 1 90 12 23 21 25 93 30 65 4 79 8 76 20 -13 48 -11 68 7 90
17 21 29 24 108 27 115 6 119 7 100 35 -22 31 -20 41 10 77 24 29 30 31 94 31
64 0 94 10 70 25 -18 11 -11 70 10 93 17 18 32 22 86 22 63 0 65 1 57 23 -13
39 -7 80 17 99 17 14 40 18 106 18 46 0 84 3 84 7 0 3 -8 15 -17 25 -24 27 -7
68 37 90 33 17 199 18 3029 18 2734 0 2993 1 2987 16 -16 41 -15 61 4 92 20
32 20 32 101 32 74 0 80 2 73 18 -4 9 -8 32 -8 51 1 53 31 71 121 71 41 0 73
3 71 8 -2 4 -10 19 -17 34 -12 23 -12 30 2 51 17 27 90 47 168 47 46 0 49 1
39 19 -17 33 -12 76 13 99 19 18 35 22 90 22 37 0 67 2 67 4 0 3 -4 16 -10 30
-12 31 4 82 30 96 10 6 55 10 99 10 47 0 81 4 81 10 0 6 -4 10 -10 10 -15 0
-23 46 -11 68 13 25 100 52 165 52 43 0 59 11 36 25 -20 12 -11 65 16 90 23
22 37 25 95 25 38 0 69 3 69 6 0 3 -5 14 -11 26 -13 25 -5 62 21 88 16 16 34
20 96 20 l75 0 -15 22 c-22 31 -20 55 8 83 20 20 37 24 115 30 85 7 91 9 76
25 -28 31 -17 73 26 96 l29 15 0 244 0 245 -11433 0 -11434 0 -6 -107z m4394
-2483 c28 -15 77 -120 93 -198 42 -201 55 -276 64 -367 10 -100 31 -160 90
-257 11 -18 23 -53 27 -78 11 -72 43 -172 65 -205 32 -46 85 -155 104 -211 9
-28 30 -64 47 -80 17 -16 48 -58 69 -94 47 -80 310 -343 421 -423 64 -45 254
-147 275 -147 4 0 34 -13 68 -29 83 -38 138 -49 291 -56 162 -8 228 -20 263
-50 l27 -23 -20 -22 c-11 -12 -51 -37 -90 -55 -38 -19 -102 -54 -142 -80 -42
-27 -101 -54 -143 -66 -84 -23 -157 -58 -184 -88 -11 -12 -42 -28 -69 -36 -64
-19 -105 -44 -176 -104 -31 -27 -71 -56 -89 -65 -18 -10 -72 -53 -119 -97 -47
-43 -89 -79 -93 -79 -4 0 -24 -21 -44 -47 -20 -27 -52 -59 -71 -72 -19 -12
-49 -46 -67 -75 -17 -28 -51 -72 -74 -97 -24 -26 -64 -89 -90 -140 -26 -52
-61 -111 -79 -132 -20 -23 -42 -69 -60 -125 -33 -101 -49 -136 -81 -175 -31
-37 -53 -112 -65 -221 -18 -171 -82 -376 -137 -438 -8 -10 -25 -18 -38 -18
-51 0 -96 103 -113 260 -31 269 -46 331 -106 420 -13 19 -31 66 -39 103 -21
92 -51 159 -87 193 -16 15 -38 52 -49 82 -23 60 -64 124 -105 162 -15 14 -47
55 -72 92 -25 37 -56 74 -69 82 -13 9 -42 43 -64 77 -30 44 -60 72 -111 105
-38 24 -72 51 -75 58 -3 8 -44 42 -91 77 -47 34 -106 80 -131 101 -26 21 -71
47 -100 58 -29 11 -74 37 -101 58 -53 42 -139 77 -213 87 -34 4 -64 18 -105
49 -74 54 -105 71 -173 96 -72 26 -123 57 -117 73 5 17 61 48 105 58 20 5 105
11 187 14 167 5 267 22 317 53 89 56 163 89 241 106 16 4 47 24 70 45 23 21
60 50 82 64 99 64 327 312 375 408 12 24 38 60 56 80 20 20 52 76 75 130 22
52 56 117 75 144 31 46 62 136 78 227 4 20 27 81 52 134 56 120 59 135 88 407
27 238 43 305 83 337 29 23 37 24 64 10z"/>
<path d="M23032 17393 c-4 -10 -7 -102 -6 -205 l0 -186 -29 -6 c-16 -3 -42 -6
-57 -6 -53 0 -55 -11 -55 -286 0 -139 -4 -256 -8 -260 -4 -4 -7 -30 -7 -59 0
-72 -15 -89 -73 -83 l-46 5 -6 -51 c-3 -28 -4 -91 -3 -141 l3 -90 -60 -5 -60
-5 -7 -65 c-4 -36 -11 -66 -16 -68 -5 -1 -7 -25 -4 -53 7 -70 -15 -93 -81 -86
l-47 4 6 -48 c5 -37 2 -55 -10 -74 -15 -22 -23 -25 -76 -25 l-60 0 7 -27 c9
-39 7 -61 -12 -89 -15 -23 -20 -24 -126 -24 l-110 0 22 -29 c25 -35 16 -61
-34 -91 -30 -19 -53 -20 -386 -20 -304 0 -362 -2 -408 -17 -29 -9 -53 -23 -53
-30 0 -7 -4 -13 -10 -13 -16 0 -13 -149 3 -165 20 -19 105 -47 157 -50 79 -5
86 -13 92 -95 l3 -35 193 -7 c152 -5 198 -10 217 -22 33 -22 42 -60 21 -91
l-16 -25 73 0 c149 0 223 -45 185 -111 l-17 -29 89 0 c85 0 90 -1 106 -25 12
-18 15 -39 12 -70 l-6 -45 59 0 c52 0 61 -3 75 -25 12 -18 15 -39 12 -70 l-6
-45 58 0 c72 0 86 -14 83 -84 -4 -77 2 -94 31 -89 13 3 33 0 45 -6 26 -15 29
-66 4 -80 -19 -10 -12 -16 32 -23 19 -3 20 -11 20 -121 0 -107 2 -120 20 -133
19 -14 20 -13 23 25 3 42 18 54 29 25 3 -9 1 -25 -6 -36 -15 -25 -11 -30 36
-37 l37 -6 1 -246 c2 -238 7 -288 26 -258 7 12 9 11 10 -1 0 -8 4 -4 9 10 7
25 8 24 24 -12 11 -25 23 -38 36 -38 10 0 22 -6 27 -12 4 -7 8 -94 8 -193 0
-99 4 -187 8 -196 10 -20 106 -31 191 -22 48 5 59 10 66 29 5 13 10 178 10
366 0 189 3 364 6 389 l6 46 51 6 c28 4 55 11 61 17 6 6 11 57 12 118 2 142 2
142 19 142 11 0 13 9 9 43 -8 59 18 93 64 82 20 -4 32 -13 33 -23 0 -12 3 -10
9 6 6 14 6 40 -1 70 -8 33 -8 55 0 75 10 25 15 27 66 27 l55 0 -6 43 c-5 34
-2 47 16 70 18 23 29 27 72 27 44 0 49 2 43 18 -19 44 -16 59 15 90 27 28 39
32 82 32 49 0 50 1 35 18 -51 57 13 122 120 122 58 0 78 10 53 25 -19 12 -11
65 15 90 23 23 31 25 130 25 l105 0 -16 25 c-21 32 -12 67 23 91 24 16 54 20
218 24 l190 5 5 40 c3 23 15 53 26 68 19 23 29 27 76 27 30 0 59 5 66 12 8 8
12 50 12 125 0 97 -2 114 -17 122 -10 5 -187 11 -393 13 -277 2 -381 7 -397
16 -28 16 -39 57 -25 94 l10 28 -75 0 c-59 0 -83 5 -109 21 -41 25 -53 62 -30
88 24 27 20 31 -28 31 -35 0 -50 6 -75 29 -31 29 -40 64 -21 76 6 3 10 13 10
21 0 10 -13 14 -51 14 -48 0 -51 1 -65 36 -9 22 -12 48 -8 70 l6 34 -56 0
c-65 0 -62 -8 -71 150 -7 121 -13 130 -87 130 -31 0 -48 4 -49 13 -1 6 -2 94
-3 194 -1 118 -5 186 -12 193 -6 6 -37 14 -68 17 l-56 6 0 388 c0 228 -4 398
-10 413 -9 26 -10 26 -130 26 -105 0 -122 -2 -128 -17z"/>
<path d="M19974 13356 c-18 -14 -19 -29 -19 -278 l0 -263 -55 -5 c-30 -3 -60
-8 -66 -12 -18 -12 -26 -108 -14 -164 7 -35 8 -59 1 -77 -10 -24 -15 -27 -61
-27 -53 0 -58 -4 -35 -34 20 -27 19 -30 -16 -71 -28 -31 -36 -35 -82 -35 -49
0 -50 -1 -33 -19 27 -30 17 -71 -23 -98 -33 -22 -40 -23 -285 -23 -182 0 -258
-4 -276 -13 -24 -12 -25 -17 -28 -117 -3 -97 -1 -106 19 -122 14 -12 38 -18
70 -18 44 0 50 -3 64 -30 8 -16 15 -45 15 -64 0 -32 3 -36 33 -40 17 -3 96 -7
173 -8 123 -3 145 -6 163 -22 24 -21 29 -84 9 -104 -9 -9 4 -12 60 -12 65 0
73 -2 88 -25 12 -18 15 -39 12 -70 l-6 -45 59 0 c73 0 78 -8 78 -121 0 -46 4
-100 9 -119 7 -34 9 -35 60 -38 45 -3 53 -6 58 -27 3 -14 7 -133 8 -266 1
-226 2 -241 20 -255 23 -16 211 -20 236 -4 12 8 15 42 16 197 1 103 2 193 3
199 0 7 27 13 62 16 37 3 64 10 70 19 6 8 8 60 6 124 -3 61 -3 116 0 123 3 6
18 12 34 12 33 0 35 5 14 26 -32 32 -9 78 43 90 59 13 81 27 71 45 -15 28 -10
68 10 88 14 14 41 20 106 26 l87 7 -21 22 c-27 29 -26 48 2 73 37 33 55 37
217 43 l154 5 9 45 c9 45 32 73 54 65 6 -2 13 1 15 7 2 6 10 4 20 -5 15 -15
17 -9 23 79 8 105 0 195 -18 206 -7 4 -130 8 -274 8 l-262 0 -20 26 c-23 29
-27 64 -11 95 10 18 7 19 -49 19 -58 0 -61 1 -77 32 -11 21 -14 43 -10 70 l6
38 -54 0 c-42 0 -55 4 -61 18 -3 9 -6 96 -6 192 1 96 -3 181 -8 189 -6 9 -33
16 -70 19 -35 3 -62 9 -62 16 -1 6 -2 96 -3 199 -1 155 -4 189 -16 197 -25 16
-213 12 -236 -4z"/>
</g>
</svg>
